<?xml version="1.0"?>
<!DOCTYPE svg PUBLIC "-//W3C//DTD SVG 1.1//EN" "http://www.w3.org/Graphics/SVG/1.1/DTD/svg11.dtd">
<svg width="415.84418760000005mm" height="199.80558259999998mm" viewBox="0 0 415.84418760000005 199.80558259999998" xmlns="http://www.w3.org/2000/svg" version="1.1">
<g id="Sketch" transform="translate(154.076904,100.728679) scale(1,-1)">
<path id="Sketch_w0000"  d="M -150.0 95.0 L -150.0 -95.0 L 150.0 -94.99999999999999 L 150.0 94.99999999999999 L -150.0 95.0 " stroke="#000000" stroke-width="0.7 px" style="stroke-width:0.7;stroke-miterlimit:4;stroke-dasharray:none;stroke-linecap:square;fill:none;fill-opacity:1;fill-rule: evenodd"/>
<path id="Sketch_w0001"  d="M -117.0 80.0 L -117.0 50.0 L -85.5 50.0 L -85.5 80.0 L -117.0 80.0 " stroke="#000000" stroke-width="0.7 px" style="stroke-width:0.7;stroke-miterlimit:4;stroke-dasharray:none;stroke-linecap:square;fill:none;fill-opacity:1;fill-rule: evenodd"/>
<path id="Sketch_w0002"  d="M -70.5 80.00000000000001 L -70.5 50.000000000000014 L -38.99999999999999 50.000000000000014 L -38.99999999999999 79.99999999999999 L -70.5 80.00000000000001 " stroke="#000000" stroke-width="0.7 px" style="stroke-width:0.7;stroke-miterlimit:4;stroke-dasharray:none;stroke-linecap:square;fill:none;fill-opacity:1;fill-rule: evenodd"/>
<path id="Sketch_w0003"  d="M -23.999999999999982 79.99999999999996 L -23.999999999999982 49.99999999999996 L 7.500000000000018 49.99999999999996 L 7.500000000000018 79.99999999999994 L -23.999999999999982 79.99999999999996 " stroke="#000000" stroke-width="0.7 px" style="stroke-width:0.7;stroke-miterlimit:4;stroke-dasharray:none;stroke-linecap:square;fill:none;fill-opacity:1;fill-rule: evenodd"/>
<path id="Sketch_w0004"  d="M 22.500000000000014 79.99999999999993 L 22.500000000000014 49.99999999999992 L 54.000000000000014 49.99999999999992 L 54.000000000000014 79.99999999999991 L 22.500000000000014 79.99999999999993 " stroke="#000000" stroke-width="0.7 px" style="stroke-width:0.7;stroke-miterlimit:4;stroke-dasharray:none;stroke-linecap:square;fill:none;fill-opacity:1;fill-rule: evenodd"/>
<path id="Sketch_w0005"  d="M 69.00000000000001 79.99999999999993 L 69.00000000000001 49.99999999999993 L 100.50000000000001 49.99999999999993 L 100.50000000000001 79.99999999999993 L 69.00000000000001 79.99999999999993 " stroke="#000000" stroke-width="0.7 px" style="stroke-width:0.7;stroke-miterlimit:4;stroke-dasharray:none;stroke-linecap:square;fill:none;fill-opacity:1;fill-rule: evenodd"/>
<path id="Sketch_w0006"  d="M 115.50000000000003 79.99999999999996 L 115.50000000000003 49.99999999999996 L 147.00000000000003 49.99999999999996 L 147.00000000000003 79.99999999999994 L 115.50000000000003 79.99999999999996 " stroke="#000000" stroke-width="0.7 px" style="stroke-width:0.7;stroke-miterlimit:4;stroke-dasharray:none;stroke-linecap:square;fill:none;fill-opacity:1;fill-rule: evenodd"/>
<path id="Sketch_w0007"  d="M -117.00000000000001 40.0 L -116.99999999999997 8.5 L -85.50000000000001 8.5 L -85.50000000000001 40.0 L -117.00000000000001 40.0 " stroke="#000000" stroke-width="0.7 px" style="stroke-width:0.7;stroke-miterlimit:4;stroke-dasharray:none;stroke-linecap:square;fill:none;fill-opacity:1;fill-rule: evenodd"/>
<path id="Sketch_w0008"  d="M -70.49999999999997 40.0 L -70.49999999999996 8.5 L -38.99999999999997 8.499999999999998 L -38.99999999999997 39.999999999999986 L -70.49999999999997 40.0 " stroke="#000000" stroke-width="0.7 px" style="stroke-width:0.7;stroke-miterlimit:4;stroke-dasharray:none;stroke-linecap:square;fill:none;fill-opacity:1;fill-rule: evenodd"/>
<path id="Sketch_w0009"  d="M -23.99999999999999 39.99999999999998 L -23.99999999999999 8.499999999999979 L 7.500000000000018 8.499999999999979 L 7.500000000000018 39.999999999999986 L -23.99999999999999 39.99999999999998 " stroke="#000000" stroke-width="0.7 px" style="stroke-width:0.7;stroke-miterlimit:4;stroke-dasharray:none;stroke-linecap:square;fill:none;fill-opacity:1;fill-rule: evenodd"/>
<path id="Sketch_w0010"  d="M 22.500000000000018 39.99999999999999 L 22.500000000000018 8.499999999999986 L 54.00000000000001 8.499999999999986 L 54.00000000000001 40.0 L 22.500000000000018 39.99999999999999 " stroke="#000000" stroke-width="0.7 px" style="stroke-width:0.7;stroke-miterlimit:4;stroke-dasharray:none;stroke-linecap:square;fill:none;fill-opacity:1;fill-rule: evenodd"/>
<path id="Sketch_w0011"  d="M 69.00000000000001 39.999999999999986 L 69.00000000000001 8.499999999999986 L 100.50000000000001 8.499999999999984 L 100.50000000000001 39.999999999999986 L 69.00000000000001 39.999999999999986 " stroke="#000000" stroke-width="0.7 px" style="stroke-width:0.7;stroke-miterlimit:4;stroke-dasharray:none;stroke-linecap:square;fill:none;fill-opacity:1;fill-rule: evenodd"/>
<path id="Sketch_w0012"  d="M 115.50000000000004 39.99999999999999 L 115.50000000000004 8.499999999999993 L 147.0 8.499999999999993 L 147.0 39.99999999999999 L 115.50000000000004 39.99999999999999 " stroke="#000000" stroke-width="0.7 px" style="stroke-width:0.7;stroke-miterlimit:4;stroke-dasharray:none;stroke-linecap:square;fill:none;fill-opacity:1;fill-rule: evenodd"/>
<path id="Sketch_w0013"  d="M -116.99999999999996 -11.5 L -116.99999999999991 -43.0 L -85.49999999999996 -43.0 L -85.49999999999996 -11.5 L -116.99999999999996 -11.5 " stroke="#000000" stroke-width="0.7 px" style="stroke-width:0.7;stroke-miterlimit:4;stroke-dasharray:none;stroke-linecap:square;fill:none;fill-opacity:1;fill-rule: evenodd"/>
<path id="Sketch_w0014"  d="M -75.49999999999996 -11.5 L -75.49999999999996 -43.00000000000001 L -43.999999999999964 -43.00000000000001 L -43.999999999999964 -11.5 L -75.49999999999996 -11.5 " stroke="#000000" stroke-width="0.7 px" style="stroke-width:0.7;stroke-miterlimit:4;stroke-dasharray:none;stroke-linecap:square;fill:none;fill-opacity:1;fill-rule: evenodd"/>
<path id="Sketch_w0015"  d="M -33.999999999999964 -11.5 L -33.999999999999964 -43.000000000000014 L -2.4999999999999605 -43.00000000000001 L -2.49999999999996 -11.5 L -33.999999999999964 -11.5 " stroke="#000000" stroke-width="0.7 px" style="stroke-width:0.7;stroke-miterlimit:4;stroke-dasharray:none;stroke-linecap:square;fill:none;fill-opacity:1;fill-rule: evenodd"/>
<path id="Sketch_w0016"  d="M 7.500000000000039 -11.5 L 7.500000000000038 -43.00000000000001 L 39.000000000000036 -43.00000000000001 L 39.000000000000036 -11.5 L 7.500000000000039 -11.5 " stroke="#000000" stroke-width="0.7 px" style="stroke-width:0.7;stroke-miterlimit:4;stroke-dasharray:none;stroke-linecap:square;fill:none;fill-opacity:1;fill-rule: evenodd"/>
<path id="Sketch_w0017"  d="M -116.99999999999984 -52.99999999999999 L -116.99999999999976 -84.49999999999999 L -85.5 -84.49999999999999 L -85.49999999999999 -52.99999999999999 L -116.99999999999984 -52.99999999999999 " stroke="#000000" stroke-width="0.7 px" style="stroke-width:0.7;stroke-miterlimit:4;stroke-dasharray:none;stroke-linecap:square;fill:none;fill-opacity:1;fill-rule: evenodd"/>
<path id="Sketch_w0018"  d="M -75.49999999999996 -52.99999999999999 L -75.49999999999996 -84.5 L -43.99999999999997 -84.5 L -43.999999999999964 -52.99999999999999 L -75.49999999999996 -52.99999999999999 " stroke="#000000" stroke-width="0.7 px" style="stroke-width:0.7;stroke-miterlimit:4;stroke-dasharray:none;stroke-linecap:square;fill:none;fill-opacity:1;fill-rule: evenodd"/>
<path id="Sketch_w0019"  d="M 7.500000000000039 -53.0 L 7.500000000000039 -84.5 L 39.000000000000036 -84.5 L 39.000000000000036 -53.0 L 7.500000000000039 -53.0 " stroke="#000000" stroke-width="0.7 px" style="stroke-width:0.7;stroke-miterlimit:4;stroke-dasharray:none;stroke-linecap:square;fill:none;fill-opacity:1;fill-rule: evenodd"/>
<path id="Sketch_w0020"  d="M -33.99999999999997 -53.0 L -33.99999999999997 -84.5 L -2.49999999999996 -84.5 L -2.4999999999999596 -53.0 L -33.99999999999997 -53.0 " stroke="#000000" stroke-width="0.7 px" style="stroke-width:0.7;stroke-miterlimit:4;stroke-dasharray:none;stroke-linecap:square;fill:none;fill-opacity:1;fill-rule: evenodd"/>
<circle cx="119.00000000000003" cy="-55.0" r="11.0" stroke="#000000" stroke-width="0.7 px" style="stroke-width:0.7;stroke-miterlimit:4;stroke-dasharray:none;stroke-linecap:square;fill:none"/>
<path id="Sketch_w0022"  d="M 227.69038 96.651775 L 227.69038 -93.348225 L 257.69038 -93.348225 L 257.69038 96.651775 L 227.69038 96.651775 " stroke="#000000" stroke-width="0.7 px" style="stroke-width:0.7;stroke-miterlimit:4;stroke-dasharray:none;stroke-linecap:square;fill:none;fill-opacity:1;fill-rule: evenodd"/>
<title>b'boc'</title>
</g>
</svg>
